M48
;Layer_Color=9474304
;FILE_FORMAT=4:4
METRIC,LZ
;TYPE=PLATED
T1F00S00C0.3000
T3F00S00C2.1000
%
T01
X-006115Y0001275
X-006175Y000325
X-00596Y00048
X-00609051Y00077054
X-006115Y000915
X-00610285Y00111528
X-0059725Y001
X-00647277Y00111028
X-00655Y00083
X-0065275Y0005875
X-00572Y00099
Y00109
X-00529Y00098
X-005315Y00082
X-00508Y00098
X-0048475Y00115
X-00468749Y00110574
X-0047075Y000811
X-00425Y00084
X-00441Y00104
X-00449197Y00037304
X-00451Y00013
X-00483Y0002225
X-0049181Y00035541
X-0055775Y00016
X-00363Y0002925
X-00256Y00022
X-002585Y000485
X-00266Y00073
X-002625Y000893
X-00235Y0008
X-00237Y00071
X-00221561Y00071264
X-00286Y001105
X-00177659Y00071264
X-00131Y00073
X-00093Y0007575
X-00073Y00067
X-00059Y00076
X-000495Y0009125
X-00062Y000525
X-00062479Y00022355
X-0005025Y0013125
X-00055Y0017075
X-0005225Y0019825
X-0004175Y0019775
X-00007Y0021325
X-00092Y00205
X-00101Y00187
X-00105Y0017
X-00094Y00158
X-001575Y001608
X-001645Y001538
Y001398
X-001575Y001468
X-001715
X-001785Y001398
Y001538
X-001715Y001608
X-001785Y001678
X-001645
X-001855Y001608
Y001468
X-0018Y0012
X-00127288Y00117288
X-00128788Y00221212
X-000995Y0023575
X-00098462Y00270962
X-0012575Y0027275
X-00155Y0027
X-00141Y00307
X-00143809Y00317541
X-00093809
X-00086Y00307
X-00085671Y00288091
X-000995Y0029925
X-00070174Y002635
X-00050133Y00267031
X-0003875Y0028675
X-0003775Y0030975
X-000475Y003505
X-00026Y00355
X-0003275Y0037275
X-00077415Y00372
X-0008825Y0038025
X-0014075Y0037175
X-0012625Y0035075
X-0012675Y0041475
X-00139889Y00435
X-00154519Y00445
X-00125821Y00478746
X-00122809Y00509541
X-00141Y005
X-00077
X-00042809Y00500541
X-00034Y00505
X-0002725Y00511
X-00017288Y00495712
X-00022Y00439
X-00051809Y00442541
X-00060809Y00458541
X-0006175Y0047875
X-00075889Y00435
X-000615Y00416
X-00015Y0012075
X-0018375Y00178
X-00205Y0017
X-0021775Y002145
X-0023Y0022
X-00226047Y00270688
X-00255Y0027
X-0025475Y00287
X-0027Y00307
X-00287223Y00308643
X-00301125Y0028699
X-00341625Y00286865
X-0033425Y00315
X-00319973Y00317143
X-0031825Y003525
X-00333415Y00372
X-00344415Y0038225
X-003185Y0041525
X-00331889Y00435
X-0036Y00457
X-00359Y00509
X-00333Y005
X-003175Y0047875
X-00289Y00444
X-00267889Y00435
X-0025425Y00415
X-00268415Y00372
X-002545Y00351
X-00243045Y00317199
X-00205Y00307
X-0019Y0028725
X-001905Y00351
X-00205415Y00372
X-00225415Y0038225
X-00191Y00415
X-00203889Y00435
X-00226Y0046
X-002545Y004785
X-00269Y005
X-00228Y0051
X-00205Y005
X-001905Y00479
X-0039725Y0050025
X-00444809Y00509541
X-00461Y005
X-00446Y00479
Y00443
X-00460889Y00435
X-0044625Y0041525
X-00460415Y00372
X-0044625Y0035325
X-00446223Y00309893
X-00463252Y00314543
X-00481723Y00309643
X-00485Y00274
Y00258
X-00495Y00254
X-00509Y00255
X-00521809Y00252191
X-00513Y00273
X-00505338Y00288708
X-0051Y00295
X-0052475Y0032075
X-0051025Y00353
X-00524415Y00372
X-00491415Y0038225
X-005105Y0041525
X-00524889Y00435
X-00511809Y00457541
X-00510607Y00478807
X-00525Y005
X-0052275Y0050975
X-00548Y0047
X-00582Y00443
X-00573369Y00415807
X-0056881Y00395541
Y00381541
X-005695Y0037175
X-00569Y00351
X-005645Y00269
X-00572Y00266
X-00571384Y0019946
X-005515Y00197
X-0055625Y0017935
X-00552Y00152125
X-0057925Y0014475
X-00572Y0013
Y0012
X-0051375Y00152125
X-004915Y00152
X-00482Y00181
X-0049Y00238
X-00437973Y00258643
X-00421Y002555
X-004035Y00236
X-00396673Y00207902
X-00382714Y00251816
X-00365223Y00308643
X-0039775Y003115
X-00397415Y00372
X-00395889Y00435
X-003995Y00152125
X-00378Y0014925
Y00118
X-00390245Y0012725
X-00276212Y00147788
X-00268Y00159
X-0028525Y0021525
X-00286Y00232
X-00265Y00246
X-003075Y0019825
X-0032Y0021
X-00330326
X-0023Y0012
X-00610535Y00121028
X-00646864Y00121354
X-0065575Y00135
X-0064275Y00146615
X-0064381Y00184541
X-00626Y00185
X-00627Y00175
X-00624Y001965
X-0063Y00236
X-00637118Y00286038
X-0063438Y002995
X-00623Y00314
X-00636Y00335
X-00608Y0034425
X-00609322Y00404678
X-0061075Y0042825
X-00589Y00435
X-0061375Y0045675
X-00612118Y00466038
X-00634373Y0046525
X-00639Y00482
X-00631Y00507
X-0059Y005
X-00622Y00451
X-00629Y00444
X-006695Y0043725
X-00667Y00426
X-00670809Y00392541
X-00672Y00369
X-00661Y00316
X-00674809Y00268541
X-00675Y00186
X-00682669Y00117331
X-00587Y0014475
X-00591Y00257
X-00583663Y0026924
X-00675Y0046
X-00667Y00487
X-006705Y0051625
X-00681Y00538
X-00688Y00555
X-00685Y00575
X-00689Y00603
X-0067125Y006185
Y0062825
Y0063875
X-00663028Y00645123
X-0065881Y00633541
X-00653Y00628
X-00644809Y00607541
X-0061575Y0060675
X-006208Y0057475
X-005895Y00564
X-00653
X-00659Y00581
X-00643Y00543
X-0063Y0051825
X-0061375Y005245
X-00589Y00628
Y00691
X-00611Y00721
X-0061475Y0073475
X-00626096Y00706828
X-00653Y00691
X-00660809Y00698541
X-00680697Y00653194
X-0068975Y0065325
X-0068925Y00637
X-00675827Y00751747
X-00653Y00756
X-00655Y0077
X-00635796Y00782375
X-0064325Y0079825
X-00653Y0082
X-00648Y008335
X-0063775Y00863
X-00654Y00883
X-00589
X-00588809Y00839541
X-00589989Y00820412
X-006045Y00811
X-00625Y00764
X-00589Y00756
X-00676Y00798
X-0057125Y0078975
X-005735Y0073525
X-005575Y007
X-00538809Y00715541
X-00525Y00691
X-0051025Y00671
X-0050681Y00650541
X-00481Y00637
X-00461Y00628
X-004455Y0060675
X-00447809Y00587541
X-00460938Y00564
X-00483Y0057475
X-0052575Y00564
X-005105Y0054325
X-0047681Y00524541
X-0044625Y00543
X-00397547Y00564
X-00351771Y0057475
X-00333882Y00564
X-00319Y005425
X-00319809Y00586541
X-003185Y0060725
X-00334Y00628
X-00354Y00637
X-00318809Y00649541
X-003185Y00671
X-00333Y00691
X-00327809Y00714541
X-0035225Y0071875
X-003605Y0070175
X-00397Y00691
Y00628
X-00445809Y00650541
X-0044675Y0067075
X-00461Y00691
X-004505Y0071875
X-0044575Y0073475
X-00461Y00756
X-00446809Y00780541
X-004465Y0079925
X-00461Y0082
X-00460809Y00839
X-00448Y0084525
X-004465Y0086325
X-00462Y00883
X-00525
X-0051Y008635
X-00532809Y00839
X-00525Y0082
X-00509661Y00799432
X-0050681Y00764541
X-00525Y00756
X-0051Y0073525
X-0048Y00721
X-004925Y0070175
X-00525Y00628
X-0050925Y00607
X-00539809Y00586541
X-005675Y0057475
X-0057375Y0060675
X-0056681Y00649541
X-00567Y00524
X-00293Y00523
X-00288Y0057475
X-0027025Y00564
X-002545Y00543
X-00254809Y00588541
X-002545Y0060625
X-00269Y00628
X-00289Y00637
X-0025402Y00650566
X-00255Y0067125
X-00269Y00691
X-00267809Y00714541
X-0025475Y007355
X-00269Y00756
X-00289809Y00780541
X-00289272Y0082675
X-00269Y0082
X-00253809Y00839
X-002545Y00863
X-00269Y00883
X-00206
X-0019075Y0086275
X-0018781Y00839
X-00205Y0082
X-0022775Y0082675
X-0025486Y00799079
X-001915Y0079875
X-00205Y00756
X-0022381Y00764541
X-0019025Y00735
X-00208809Y00714541
X-00205Y00691
X-00191Y0067125
X-00190809Y00648541
X-00205Y00628
X-00225Y00637
X-00226Y0057475
X-00206262Y00564
X-0019075Y0054275
X-00191809Y00586541
X-001905Y0060725
X-0023475Y0070175
X-0029775
X-00318Y00735
X-00333Y00756
X-00356809Y00764541
X-00397Y00756
Y0082
X-00398Y00883
X-00333
X-003185Y0086375
X-00343809Y00839
X-0035625Y0084525
X-00333Y0082
X-003185Y00799
X-0047975Y0082675
X-00574953Y00863191
X-001785Y0088275
X-0016281Y0085325
X-0017475Y00827
X-00141Y0082
X-001255Y00839
X-001265Y0079975
X-0016181Y00781541
X-00141Y00756
X-0014325Y0069975
X-00141Y00691
X-0012725Y006715
X-0013Y0062
X-001265Y0060675
X-00127809Y00586541
X-00142196Y00564
X-00154723Y0057475
X-001
X-00078658Y00564
X-00049809Y00564541
X-000575Y005435
X-00066809Y00523541
X-00020059Y00536988
X-00025Y00543
X-0003975Y00606
X-00037809Y00627541
X-0004325Y0065275
X-00027Y0065
X-0002Y00667
X-00017995Y00685495
X-00040809Y00698541
X-0004425Y0073525
X-0006275Y0073474
X-000225Y0074
X-0001975Y007725
X-00042Y0078
X-0006575Y0079925
X-00077Y0082
X-00096Y0082675
X-00054809Y00842541
X-0002375Y0085625
X-00016303Y0086648
X-00017235Y00890765
X-0000775Y0089225
X-00019268Y00817125
X-00093221Y0071575
X-00078418Y00691
X-0006875Y0067075
X-00077Y00628
X-000915Y006205
X-00101Y00637
X-00141Y00628
X-00164Y006475
X-00176852Y0070175
X-00162Y00525
X-001265Y0054275
X-00069809Y00586541
X-0008Y0092
X-0005175Y0093575
X-0002125Y0093725
X-0002975Y009735
X-0003Y0102
X-00055Y0107
X-0008Y0112
X-0013
X-00157959Y01071709
X-00127Y01006
X-0012
Y00995
X-00127
X-001395Y009195
X-0018Y0092
X-0023
X-0028
X-0033
X-0038
X-0043
X-0048
X-0053175
X-0058
X-00542Y0107
X-00505Y0107
X-0053Y0112
X-0058
X-0048
Y0102
X-0043
X-0038
X-0033
X-0028
X-00247Y00985
X-00255Y0107
X-0023Y0112
X-0063
X-00655Y0107
X-00594Y01065485
X-0068Y0102
X-00657171Y00972171
X-0063Y0092
T03
X-00665Y00035
X-00035
X-0004Y00236
X-0066
X-0004Y00914
X-00035Y01115
X-00665Y01115
X-0066Y00914
M30
