%FSLAX44Y44*%
%MOMM*%
G71*
G04*
G04 #@! TF.SameCoordinates,80543DCF-8C45-4766-8294-206619DBCA83*
G04*
G04*
G04 #@! TF.FilePolarity,Positive*
G04*
G01*
G75*
%ADD10C,0.3000*%
%ADD11C,0.1500*%
%ADD12C,0.1000*%
%ADD28C,0.2000*%
%ADD29C,0.5000*%
%ADD31C,0.4000*%
%ADD113C,0.2500*%
%ADD114C,0.2540*%
%ADD115C,0.1270*%
%ADD116R,1.0000X0.3996*%
%ADD117R,1.0000X0.4004*%
G36*
X-503420Y304530D02*
X-509030D01*
X-503420Y298920D01*
Y304530D01*
D02*
G37*
G36*
X-388350Y220000D02*
Y210000D01*
X-378350Y220000D01*
X-388350D01*
D02*
G37*
D10*
X-490364Y161398D02*
G03*
X-490364Y161398I-1500J0D01*
G01*
X-535250Y216595D02*
G03*
X-535250Y216595I-1500J0D01*
G01*
D11*
X-569000Y305750D02*
Y338250D01*
X-603000D02*
X-569000D01*
X-603000Y305750D02*
Y338250D01*
Y305750D02*
X-569000D01*
X-102000Y273760D02*
Y306260D01*
Y273760D02*
X-68000D01*
Y306260D01*
X-102000D02*
X-68000D01*
X-610500Y1031750D02*
Y1065750D01*
X-578000D01*
Y1031750D02*
Y1065750D01*
X-610500Y1031750D02*
X-578000D01*
X-4750Y949750D02*
Y994000D01*
X-31750Y958000D02*
Y986000D01*
Y936000D02*
X-17500D01*
X-31750D02*
Y944500D01*
Y999500D02*
Y1008000D01*
X-17250D01*
X-682750Y671500D02*
X-668250D01*
Y680000D01*
Y735000D02*
Y743500D01*
X-682500D02*
X-668250D01*
Y693500D02*
Y721500D01*
X-695250Y685500D02*
Y729750D01*
X-4750Y685250D02*
Y729500D01*
X-31750Y693500D02*
Y721500D01*
Y671500D02*
X-17500D01*
X-31750D02*
Y680000D01*
Y735000D02*
Y743500D01*
X-17250D01*
X-524950Y147750D02*
Y156250D01*
X-521700Y167250D02*
X-504200D01*
X-521700Y136750D02*
X-504200D01*
X-461500Y148500D02*
Y164500D01*
X-456250Y148500D02*
Y164500D01*
X-435500Y145500D02*
Y167250D01*
X-482250Y145500D02*
X-435500D01*
X-482250D02*
Y167250D01*
X-435500D01*
X-518250Y335750D02*
X-471500D01*
X-518250Y314000D02*
Y335750D01*
Y314000D02*
X-471500D01*
Y335750D01*
X-492250Y317000D02*
Y333000D01*
X-497500Y317000D02*
Y333000D01*
X-567500Y118000D02*
Y134000D01*
X-572750Y118000D02*
Y134000D01*
X-593500Y115250D02*
Y137000D01*
X-546750D01*
Y115250D02*
Y137000D01*
X-593500Y115250D02*
X-546750D01*
X-392780Y335750D02*
X-346030D01*
X-392780Y314000D02*
Y335750D01*
Y314000D02*
X-346030D01*
Y335750D01*
X-366780Y317000D02*
Y333000D01*
X-372030Y317000D02*
Y333000D01*
X-567500Y95000D02*
Y111000D01*
X-572750Y95000D02*
Y111000D01*
X-593500Y92250D02*
Y114000D01*
X-546750D01*
Y92250D02*
Y114000D01*
X-593500Y92250D02*
X-546750D01*
X-456250Y314250D02*
X-409500D01*
Y336000D01*
X-456250D02*
X-409500D01*
X-456250Y314250D02*
Y336000D01*
X-435500Y317000D02*
Y333000D01*
X-430250Y317000D02*
Y333000D01*
X-575250Y153500D02*
Y200500D01*
X-598250Y153500D02*
X-575250D01*
X-598250D02*
Y200500D01*
X-575250D01*
X-598000Y203500D02*
Y296500D01*
X-543000D01*
Y203500D02*
Y296500D01*
X-598000Y203500D02*
X-543000D01*
X-665250Y163000D02*
X-638000D01*
X-669000Y166750D02*
X-665250Y163000D01*
X-690000Y166750D02*
X-669000D01*
X-692250Y164500D02*
X-690000Y166750D01*
X-638000Y163000D02*
X-634750Y166250D01*
X-634250Y166750D01*
X-618000D01*
X-613750Y162500D01*
Y155750D02*
Y162500D01*
X-616250Y153250D02*
X-613750Y155750D01*
Y69250D02*
Y76000D01*
X-618000Y65000D02*
X-613750Y69250D01*
X-634250Y65000D02*
X-618000D01*
X-634750Y65500D02*
X-634250Y65000D01*
X-638000Y68750D02*
X-634750Y65500D01*
X-692250Y67250D02*
X-690000Y65000D01*
X-669000D01*
X-665250Y68750D01*
X-638000D01*
X-616250Y78500D02*
Y153250D01*
Y78500D02*
X-613750Y76000D01*
X-469250Y103750D02*
Y136250D01*
Y103750D02*
X-435250D01*
Y136250D01*
X-469250D02*
X-435250D01*
X-349500Y74750D02*
X-315500D01*
X-349500D02*
Y107250D01*
X-315500D01*
Y74750D02*
Y107250D01*
X-407750D02*
X-373750D01*
Y74750D02*
Y107250D01*
X-407750Y74750D02*
X-373750D01*
X-407750D02*
Y107250D01*
D12*
X-619000Y199750D02*
X-601000D01*
Y169750D02*
Y199750D01*
X-619000Y169750D02*
X-601000D01*
X-619000D02*
Y199750D01*
Y233000D02*
X-601000D01*
Y203000D02*
Y233000D01*
X-619000Y203000D02*
X-601000D01*
X-619000D02*
Y233000D01*
Y235000D02*
Y265000D01*
Y235000D02*
X-601000D01*
Y265000D01*
X-619000D02*
X-601000D01*
X-134000Y897000D02*
X-120000D01*
X-134000Y903000D02*
X-120000D01*
X-136000Y915000D02*
X-118000D01*
Y885000D02*
Y915000D01*
X-136000Y885000D02*
X-118000D01*
X-136000D02*
Y915000D01*
X-118000Y707615D02*
Y737615D01*
X-136000D02*
X-118000D01*
X-136000Y707615D02*
Y737615D01*
Y707615D02*
X-118000D01*
X-134000Y719615D02*
X-120000D01*
X-134000Y725615D02*
X-120000D01*
X-118000Y743000D02*
Y773000D01*
X-136000D02*
X-118000D01*
X-136000Y743000D02*
Y773000D01*
Y743000D02*
X-118000D01*
Y919000D02*
Y949000D01*
X-136000D02*
X-118000D01*
X-136000Y919000D02*
Y949000D01*
Y919000D02*
X-118000D01*
X-136000Y985000D02*
X-118000D01*
Y955000D02*
Y985000D01*
X-136000Y955000D02*
X-118000D01*
X-136000D02*
Y985000D01*
Y852000D02*
Y882000D01*
Y852000D02*
X-118000D01*
Y882000D01*
X-136000D02*
X-118000D01*
X-572750Y768000D02*
Y782000D01*
X-578750Y768000D02*
Y782000D01*
X-590750Y766000D02*
Y784000D01*
X-560750D01*
Y766000D02*
Y784000D01*
X-590750Y766000D02*
X-560750D01*
Y794250D02*
Y812250D01*
X-590750Y794250D02*
X-560750D01*
X-590750D02*
Y812250D01*
X-560750D01*
X-46000Y274760D02*
Y304760D01*
X-64000D02*
X-46000D01*
X-64000Y274760D02*
Y304760D01*
Y274760D02*
X-46000D01*
X-106875Y279010D02*
Y297010D01*
X-136875Y279010D02*
X-106875D01*
X-136875D02*
Y297010D01*
X-106875D01*
X-693160Y524000D02*
X-688496Y528664D01*
X-677504D02*
X-672840Y524000D01*
X-688496Y528664D02*
X-677504D01*
X-690496Y526664D02*
X-675504D01*
X-689496Y527664D02*
X-676504D01*
X-672840Y506366D02*
Y524000D01*
X-693164Y509237D02*
Y524000D01*
Y471750D02*
X-672840D01*
Y491634D01*
X-693164Y471750D02*
Y488763D01*
X-693160Y444000D02*
X-688496Y448664D01*
X-677504D02*
X-672840Y444000D01*
X-688496Y448664D02*
X-677504D01*
X-690496Y446664D02*
X-675504D01*
X-689496Y447664D02*
X-676504D01*
X-672840Y426366D02*
Y444000D01*
X-693164Y429237D02*
Y444000D01*
Y391750D02*
X-672840D01*
Y411634D01*
X-693164Y391750D02*
Y408763D01*
X-479664Y11754D02*
X-475000Y7090D01*
X-479664Y22746D02*
X-475000Y27410D01*
X-479664Y11754D02*
Y22746D01*
X-477664Y9754D02*
Y24746D01*
X-478664Y10754D02*
Y23746D01*
X-475000Y27410D02*
X-457366D01*
X-475000Y7086D02*
X-460237D01*
X-422750D02*
Y27410D01*
X-442634D02*
X-422750D01*
X-439763Y7086D02*
X-422750D01*
X-461500Y281250D02*
X-415500D01*
X-461500Y309250D02*
X-415500D01*
X-461500Y281250D02*
Y285250D01*
X-415500Y281250D02*
Y285250D01*
X-461500Y305250D02*
Y309250D01*
X-415500Y305250D02*
Y309250D01*
X-425500Y285250D02*
X-415500D01*
X-425500Y305250D02*
X-415500D01*
X-425500Y281250D02*
Y285250D01*
Y305250D02*
Y309250D01*
X-604500Y998250D02*
X-558500D01*
X-604500Y1026250D02*
X-558500D01*
X-604500Y998250D02*
Y1002250D01*
X-558500Y998250D02*
Y1002250D01*
X-604500Y1022250D02*
Y1026250D01*
X-558500Y1022250D02*
Y1026250D01*
X-568500Y1002250D02*
X-558500D01*
X-568500Y1022250D02*
X-558500D01*
X-568500Y998250D02*
Y1002250D01*
Y1022250D02*
Y1026250D01*
X-575250Y1031750D02*
Y1061750D01*
Y1031750D02*
X-557250D01*
Y1061750D01*
X-575250D02*
X-557250D01*
X-556250Y1031750D02*
X-538250D01*
X-556250D02*
Y1061750D01*
X-538250D01*
Y1031750D02*
Y1061750D01*
X-367000Y135000D02*
X-349000D01*
X-367000D02*
Y165000D01*
X-349000D01*
Y135000D02*
Y165000D01*
X-385000Y153000D02*
X-371000D01*
X-385000Y147000D02*
X-371000D01*
X-387000Y135000D02*
X-369000D01*
X-387000D02*
Y165000D01*
X-369000D01*
Y135000D02*
Y165000D01*
X-329000Y135000D02*
Y165000D01*
X-347000D02*
X-329000D01*
X-347000Y135000D02*
Y165000D01*
Y135000D02*
X-329000D01*
X-579000Y530500D02*
Y560500D01*
Y530500D02*
X-561000D01*
Y560500D01*
X-579000D02*
X-561000D01*
X-541500Y176500D02*
Y194500D01*
X-571500Y176500D02*
X-541500D01*
X-571500D02*
Y194500D01*
X-541500D01*
X-485000Y90000D02*
X-455000D01*
X-485000Y72000D02*
Y90000D01*
Y72000D02*
X-455000D01*
Y90000D01*
X-493750Y130000D02*
X-475750D01*
Y100000D02*
Y130000D01*
X-493750Y100000D02*
X-475750D01*
X-493750D02*
Y130000D01*
X-535500Y72000D02*
Y90000D01*
X-565500Y72000D02*
X-535500D01*
X-565500D02*
Y90000D01*
X-535500D01*
X-579000Y462000D02*
Y492000D01*
Y462000D02*
X-561000D01*
Y492000D01*
X-579000D02*
X-561000D01*
X-395000Y113250D02*
Y131250D01*
X-425000Y113250D02*
X-395000D01*
X-425000D02*
Y131250D01*
X-395000D01*
X-428000Y134750D02*
Y164750D01*
Y134750D02*
X-410000D01*
Y164750D01*
X-428000D02*
X-410000D01*
X-305000Y113000D02*
Y143000D01*
Y113000D02*
X-287000D01*
Y143000D01*
X-305000D02*
X-287000D01*
X-547307Y156334D02*
X-533307D01*
X-547307Y162334D02*
X-533307D01*
X-549307Y174334D02*
X-531307D01*
Y144334D02*
Y174334D01*
X-549307Y144334D02*
X-531307D01*
X-549307D02*
Y174334D01*
X-571057Y156334D02*
X-557057D01*
X-571057Y162334D02*
X-557057D01*
X-573057Y174334D02*
X-555057D01*
Y144334D02*
Y174334D01*
X-573057Y144334D02*
X-555057D01*
X-573057D02*
Y174334D01*
X-624500Y6000D02*
X-555500D01*
X-624500D02*
Y31750D01*
X-555500Y6000D02*
Y29000D01*
X-515000Y118000D02*
X-501000D01*
X-515000Y112000D02*
X-501000D01*
X-517000Y100000D02*
X-499000D01*
X-517000D02*
Y130000D01*
X-499000D01*
Y100000D02*
Y130000D01*
X-388350Y220000D02*
X-287650D01*
X-388350Y190000D02*
X-287650D01*
X-388350D02*
Y220000D01*
X-287650Y190000D02*
Y220000D01*
X-345000Y249000D02*
Y263000D01*
X-339000Y249000D02*
Y263000D01*
X-327000Y247000D02*
Y265000D01*
X-357000Y247000D02*
X-327000D01*
X-357000D02*
Y265000D01*
X-327000D01*
X-520000Y171750D02*
X-416000D01*
X-520000D02*
Y199750D01*
X-416000Y171750D02*
Y199750D01*
X-520000Y271750D02*
X-416000D01*
Y243750D02*
Y271750D01*
X-520000Y243750D02*
Y271750D01*
X-513580Y304530D02*
X-503420D01*
X-513580Y277530D02*
X-513580Y304530D01*
X-513580Y277530D02*
X-503420D01*
X-503420Y304530D02*
X-503420Y277530D01*
X-671750Y333500D02*
X-669750D01*
X-669746Y301500D01*
X-671750D02*
X-669750D01*
X-692250Y333500D02*
X-690250D01*
X-692253Y301500D02*
X-692250Y333500D01*
Y301500D02*
X-690250D01*
X-251500Y257700D02*
X-225500D01*
X-251500Y249700D02*
Y257700D01*
Y69700D02*
X-69500D01*
Y249700D02*
Y257700D01*
X-95500D02*
X-69500D01*
X-578000Y359750D02*
Y389750D01*
X-596000D02*
X-578000D01*
X-596000Y359750D02*
Y389750D01*
Y359750D02*
X-578000D01*
X-594000Y371750D02*
X-580000D01*
X-594000Y377750D02*
X-580000D01*
X-399250Y303250D02*
X-369250D01*
X-399250Y285250D02*
Y303250D01*
Y285250D02*
X-369250D01*
Y303250D01*
X-381250Y287250D02*
Y301250D01*
X-387250Y287250D02*
Y301250D01*
X-267000Y113000D02*
Y143000D01*
X-285000D02*
X-267000D01*
X-285000Y113000D02*
Y143000D01*
Y113000D02*
X-267000D01*
X-283000Y125000D02*
X-269000D01*
X-283000Y131000D02*
X-269000D01*
X-285000Y75000D02*
Y105000D01*
Y75000D02*
X-267000D01*
Y105000D01*
X-285000D02*
X-267000D01*
X-283000Y93000D02*
X-269000D01*
X-283000Y87000D02*
X-269000D01*
X-305000Y75000D02*
Y105000D01*
Y75000D02*
X-287000D01*
Y105000D01*
X-305000D02*
X-287000D01*
X-303000Y93000D02*
X-289000D01*
X-303000Y87000D02*
X-289000D01*
X-520000Y100000D02*
Y130000D01*
X-538000D02*
X-520000D01*
X-538000Y100000D02*
Y130000D01*
Y100000D02*
X-520000D01*
X-536000Y112000D02*
X-522000D01*
X-536000Y118000D02*
X-522000D01*
X-601000Y72000D02*
X-571000D01*
Y90000D01*
X-601000D02*
X-571000D01*
X-601000Y72000D02*
Y90000D01*
X-589000Y74000D02*
Y88000D01*
X-583000Y74000D02*
Y88000D01*
D28*
X-587543Y61750D02*
G03*
X-588750Y61250I0J-1707D01*
G01*
D02*
G03*
X-586500Y66682I-5432J5432D01*
G01*
X-579697Y65000D02*
G03*
X-588750Y61250I0J-12803D01*
G01*
X-518885Y65000D02*
G03*
X-510304Y68554I0J12135D01*
G01*
X-465261Y61011D02*
G03*
X-466441Y61500I-1180J-1180D01*
G01*
X-467500Y66432D02*
G03*
X-465250Y61000I7682J0D01*
G01*
D02*
G03*
X-474907Y65000I-9657J-9657D01*
G01*
X-510109Y68359D02*
G03*
X-502000Y65000I8109J8109D01*
G01*
X-64625Y709750D02*
G03*
X-71667Y706833I0J-9959D01*
G01*
X-71152Y712402D02*
G03*
X-64750Y709750I6402J6402D01*
G01*
X-64125Y969750D02*
G03*
X-71167Y966833I0J-9959D01*
G01*
X-70652Y972402D02*
G03*
X-64250Y969750I6402J6402D01*
G01*
X-638125Y419000D02*
G03*
X-631083Y421917I0J9959D01*
G01*
X-631598Y416348D02*
G03*
X-638000Y419000I-6402J-6402D01*
G01*
X-639125Y499750D02*
G03*
X-632083Y502667I0J9959D01*
G01*
X-632598Y497098D02*
G03*
X-639000Y499750I-6402J-6402D01*
G01*
X-632098Y705848D02*
G03*
X-638500Y708500I-6402J-6402D01*
G01*
X-638625D02*
G03*
X-631583Y711417I0J9959D01*
G01*
X-587543Y61750D02*
X-582500D01*
X-586500Y66682D02*
Y67500D01*
X-579697Y65000D02*
X-518885D01*
X-472000Y61500D02*
X-466441D01*
X-467500Y66432D02*
Y67500D01*
X-502000Y65000D02*
X-474907D01*
X-510500Y68750D02*
X-510109Y68359D01*
X-81500Y709750D02*
X-64500D01*
X-67500D02*
X-64500D01*
X-74250Y704250D02*
X-71667Y706833D01*
X-73750Y715000D02*
X-71152Y712402D01*
X-81000Y969750D02*
X-64000D01*
X-67000D02*
X-64000D01*
X-73750Y964250D02*
X-71167Y966833D01*
X-73250Y975000D02*
X-70652Y972402D01*
X-638250Y419000D02*
X-621250D01*
X-638250D02*
X-635250D01*
X-631083Y421917D02*
X-628500Y424500D01*
X-631598Y416348D02*
X-629000Y413750D01*
X-639250Y499750D02*
X-622250D01*
X-639250D02*
X-636250D01*
X-632083Y502667D02*
X-629500Y505250D01*
X-632598Y497098D02*
X-630000Y494500D01*
X-632098Y705848D02*
X-629500Y703250D01*
X-631583Y711417D02*
X-629000Y714000D01*
X-638750Y708500D02*
X-638500D01*
X-638750D02*
X-635750D01*
X-638750D02*
X-621750D01*
X-364600Y259000D02*
Y267000D01*
X-368600Y263000D02*
X-360600D01*
X-300600Y310000D02*
Y318000D01*
X-304600Y314000D02*
X-296600D01*
D29*
X-391045Y228952D02*
X-390998Y229000D01*
X-390950Y228952D01*
X-390998Y228905D01*
X-391045Y228952D01*
X-495548Y308095D02*
X-495500Y308048D01*
X-495548Y308000D01*
X-495595Y308048D01*
X-495548Y308095D01*
X-260952Y73905D02*
X-261000Y73952D01*
X-260952Y74000D01*
X-260905Y73952D01*
X-260952Y73905D01*
D31*
X-122000Y1000000D02*
G03*
X-122000Y1000000I-2000J0D01*
G01*
D113*
X-600510Y299000D02*
G03*
X-600510Y299000I-1250J0D01*
G01*
X-64750Y310010D02*
G03*
X-64750Y310010I-1250J0D01*
G01*
X-602500Y1070750D02*
G03*
X-602500Y1070750I-1250J0D01*
G01*
X-428750Y129750D02*
G03*
X-428750Y129750I-1250J0D01*
G01*
X-353250Y81500D02*
G03*
X-353250Y81500I-1250J0D01*
G01*
X-367500Y100500D02*
G03*
X-367500Y100500I-1250J0D01*
G01*
D114*
X-529000Y360000D02*
X-169000D01*
X-529000Y880000D02*
X-169000D01*
Y360000D02*
Y880000D01*
X-529000Y360000D02*
Y880000D01*
X-447000Y1007500D02*
Y1047500D01*
X-510036Y984242D02*
X-470036D01*
X-533000Y1007500D02*
Y1047500D01*
X-510000Y1070500D02*
X-470000D01*
X-501500D02*
X-478500D01*
X-501500Y1060500D02*
X-478500D01*
X-501500D02*
Y1070500D01*
X-478500Y1060500D02*
Y1070500D01*
X-104002Y1046149D02*
X-115998D01*
X-110000Y1029997D02*
Y1026998D01*
X-107001D01*
X-112999D01*
X-110000D01*
Y1018000D01*
X-112999Y1015001D01*
X-104002Y999309D02*
X-115998D01*
X-110000Y1005307D02*
Y993310D01*
X-499574Y88617D02*
X-504652D01*
X-502113D01*
Y73383D01*
X-499574D01*
X-504652D01*
X-512270D02*
Y88617D01*
X-519887D01*
X-522426Y86078D01*
Y81000D01*
X-519887Y78461D01*
X-512270D01*
X-517348D02*
X-522426Y73383D01*
X-604922Y481726D02*
X-602383Y479187D01*
Y474108D01*
X-604922Y471569D01*
X-615078D01*
X-617617Y474108D01*
Y479187D01*
X-615078Y481726D01*
X-602383Y486804D02*
X-617617D01*
X-610000D01*
Y496961D01*
X-602383D01*
X-617617D01*
Y502039D02*
X-602383D01*
Y509657D01*
X-604922Y512196D01*
X-610000D01*
X-612539Y509657D01*
Y502039D01*
Y507118D02*
X-617617Y512196D01*
X-604922Y527431D02*
X-602383Y524892D01*
Y519813D01*
X-604922Y517274D01*
X-615078D01*
X-617617Y519813D01*
Y524892D01*
X-615078Y527431D01*
X-610000D01*
Y522353D01*
X-602383Y400726D02*
Y390569D01*
X-610000D01*
Y395647D01*
Y390569D01*
X-617617D01*
X-602383Y405804D02*
X-615078D01*
X-617617Y408343D01*
Y413422D01*
X-615078Y415961D01*
X-602383D01*
Y421039D02*
X-617617D01*
Y431196D01*
X-602383Y436274D02*
X-617617D01*
Y446431D01*
X-104157Y778597D02*
X-88922D01*
Y770980D01*
X-91461Y768440D01*
X-94000D01*
X-96539Y770980D01*
Y778597D01*
Y770980D01*
X-99078Y768440D01*
X-101617D01*
X-104157Y770980D01*
Y778597D01*
X-99078Y763362D02*
X-88922D01*
X-94000D01*
X-96539Y760823D01*
X-99078Y758284D01*
Y755744D01*
X-88922Y748127D02*
Y743048D01*
Y745588D01*
X-99078D01*
Y748127D01*
X-83843Y730353D02*
Y727813D01*
X-86383Y725274D01*
X-99078D01*
Y732892D01*
X-96539Y735431D01*
X-91461D01*
X-88922Y732892D01*
Y725274D01*
X-104157Y720196D02*
X-88922D01*
X-96539D01*
X-99078Y717657D01*
Y712578D01*
X-96539Y710039D01*
X-88922D01*
X-101617Y702422D02*
X-99078D01*
Y704961D01*
Y699883D01*
Y702422D01*
X-91461D01*
X-88922Y699883D01*
Y692265D02*
X-99078D01*
Y684647D01*
X-96539Y682108D01*
X-88922D01*
Y669412D02*
Y674491D01*
X-91461Y677030D01*
X-96539D01*
X-99078Y674491D01*
Y669412D01*
X-96539Y666873D01*
X-94000D01*
Y677030D01*
X-88922Y661795D02*
Y654177D01*
X-91461Y651638D01*
X-94000Y654177D01*
Y659256D01*
X-96539Y661795D01*
X-99078Y659256D01*
Y651638D01*
X-88922Y646560D02*
Y638942D01*
X-91461Y636403D01*
X-94000Y638942D01*
Y644020D01*
X-96539Y646560D01*
X-99078Y644020D01*
Y636403D01*
X-617617Y649099D02*
X-602382D01*
Y656716D01*
X-604922Y659256D01*
X-610000D01*
X-612539Y656716D01*
Y649099D01*
X-607461Y666873D02*
Y671952D01*
X-610000Y674491D01*
X-617617D01*
Y666873D01*
X-615078Y664334D01*
X-612539Y666873D01*
Y674491D01*
X-617617Y679569D02*
Y687187D01*
X-615078Y689726D01*
X-612539Y687187D01*
Y682108D01*
X-610000Y679569D01*
X-607461Y682108D01*
Y689726D01*
X-617617Y694804D02*
Y702422D01*
X-615078Y704961D01*
X-612539Y702422D01*
Y697343D01*
X-610000Y694804D01*
X-607461Y697343D01*
Y704961D01*
Y710039D02*
X-615078D01*
X-617617Y712578D01*
X-615078Y715117D01*
X-617617Y717657D01*
X-615078Y720196D01*
X-607461D01*
X-617617Y727813D02*
Y732892D01*
X-615078Y735431D01*
X-610000D01*
X-607461Y732892D01*
Y727813D01*
X-610000Y725274D01*
X-615078D01*
X-617617Y727813D01*
X-607461Y740509D02*
X-617617D01*
X-612539D01*
X-610000Y743048D01*
X-607461Y745588D01*
Y748127D01*
X-602382Y765901D02*
X-617617D01*
Y758284D01*
X-615078Y755744D01*
X-610000D01*
X-607461Y758284D01*
Y765901D01*
X-101618Y992931D02*
X-86383D01*
Y982774D01*
X-101618Y967539D02*
Y977696D01*
X-86383D01*
Y967539D01*
X-94000Y977696D02*
Y972617D01*
X-101618Y962461D02*
X-86383D01*
Y954843D01*
X-88922Y952304D01*
X-99078D01*
X-101618Y954843D01*
Y962461D01*
X-86383Y947226D02*
Y939608D01*
X-88922Y937069D01*
X-91461Y939608D01*
Y944687D01*
X-94000Y947226D01*
X-96539Y944687D01*
Y937069D01*
D115*
X-188000Y1069500D02*
X-140000D01*
Y1048000D02*
Y1069500D01*
Y970500D02*
Y992000D01*
X-187500Y970500D02*
X-140000D01*
X-216000Y987500D02*
Y1053000D01*
D116*
X-420495Y283252D02*
D03*
X-563495Y1000252D02*
D03*
D117*
X-420495Y307252D02*
D03*
X-563495Y1024252D02*
D03*
M02*
