%FSLAX44Y44*%
%MOMM*%
G71*
G04*
G04 #@! TF.SameCoordinates,80543DCF-8C45-4766-8294-206619DBCA83*
G04*
G04*
G04 #@! TF.FilePolarity,Negative*
G04*
G01*
G75*
%ADD17C,1.7000*%
%ADD18R,1.3000X1.0000*%
G04:AMPARAMS|DCode=19|XSize=1.704mm|YSize=1.704mm|CornerRadius=0.2895mm|HoleSize=0mm|Usage=FLASHONLY|Rotation=270.000|XOffset=0mm|YOffset=0mm|HoleType=Round|Shape=RoundedRectangle|*
%AMROUNDEDRECTD19*
21,1,1.7040,1.1250,0,0,270.0*
21,1,1.1250,1.7040,0,0,270.0*
1,1,0.5790,-0.5625,-0.5625*
1,1,0.5790,-0.5625,0.5625*
1,1,0.5790,0.5625,0.5625*
1,1,0.5790,0.5625,-0.5625*
%
%ADD19ROUNDEDRECTD19*%
G04:AMPARAMS|DCode=20|XSize=1.104mm|YSize=1.104mm|CornerRadius=0.2145mm|HoleSize=0mm|Usage=FLASHONLY|Rotation=270.000|XOffset=0mm|YOffset=0mm|HoleType=Round|Shape=RoundedRectangle|*
%AMROUNDEDRECTD20*
21,1,1.1040,0.6750,0,0,270.0*
21,1,0.6750,1.1040,0,0,270.0*
1,1,0.4290,-0.3375,-0.3375*
1,1,0.4290,-0.3375,0.3375*
1,1,0.4290,0.3375,0.3375*
1,1,0.4290,0.3375,-0.3375*
%
%ADD20ROUNDEDRECTD20*%
G04:AMPARAMS|DCode=21|XSize=1.604mm|YSize=1.004mm|CornerRadius=0.302mm|HoleSize=0mm|Usage=FLASHONLY|Rotation=270.000|XOffset=0mm|YOffset=0mm|HoleType=Round|Shape=RoundedRectangle|*
%AMROUNDEDRECTD21*
21,1,1.6040,0.4000,0,0,270.0*
21,1,1.0000,1.0040,0,0,270.0*
1,1,0.6040,-0.2000,-0.5000*
1,1,0.6040,-0.2000,0.5000*
1,1,0.6040,0.2000,0.5000*
1,1,0.6040,0.2000,-0.5000*
%
%ADD21ROUNDEDRECTD21*%
%ADD22C,2.1000*%
%ADD23C,0.9000*%
%ADD24C,0.2040*%
%ADD25O,2.7000X1.2000*%
%ADD26O,2.2000X1.2000*%
D17*
X-617000Y927000D02*
D03*
X-71500Y235000D02*
D03*
D18*
X-111495Y296000D02*
D03*
Y278000D02*
D03*
X-140495D02*
D03*
Y296000D02*
D03*
X-367500Y872000D02*
D03*
Y854000D02*
D03*
X-396500D02*
D03*
Y872000D02*
D03*
X-332495Y296000D02*
D03*
Y278000D02*
D03*
X-303495D02*
D03*
Y296000D02*
D03*
X-652500D02*
D03*
Y278000D02*
D03*
X-623500D02*
D03*
Y296000D02*
D03*
X-268495D02*
D03*
Y278000D02*
D03*
X-239495D02*
D03*
Y296000D02*
D03*
X-588495D02*
D03*
Y278000D02*
D03*
X-559495D02*
D03*
Y296000D02*
D03*
X-204495D02*
D03*
Y278000D02*
D03*
X-175495D02*
D03*
Y296000D02*
D03*
X-524495D02*
D03*
Y278000D02*
D03*
X-495495D02*
D03*
Y296000D02*
D03*
X-460495D02*
D03*
Y278000D02*
D03*
X-431495D02*
D03*
Y296000D02*
D03*
X-47500D02*
D03*
Y278000D02*
D03*
X-76500D02*
D03*
Y296000D02*
D03*
X-396495D02*
D03*
Y278000D02*
D03*
X-367495D02*
D03*
Y296000D02*
D03*
X-303500Y360000D02*
D03*
Y342000D02*
D03*
X-332500D02*
D03*
Y360000D02*
D03*
X-303500Y424000D02*
D03*
Y406000D02*
D03*
X-332500D02*
D03*
Y424000D02*
D03*
X-303500Y488000D02*
D03*
Y470000D02*
D03*
X-332500D02*
D03*
Y488000D02*
D03*
X-303500Y552000D02*
D03*
Y534000D02*
D03*
X-332500D02*
D03*
Y552000D02*
D03*
X-303500Y616000D02*
D03*
Y598000D02*
D03*
X-332500D02*
D03*
Y616000D02*
D03*
X-303500Y680000D02*
D03*
Y662000D02*
D03*
X-332500D02*
D03*
Y680000D02*
D03*
X-303500Y744000D02*
D03*
Y726000D02*
D03*
X-332500D02*
D03*
Y744000D02*
D03*
X-303500Y808000D02*
D03*
Y790000D02*
D03*
X-332500D02*
D03*
Y808000D02*
D03*
X-303500Y872000D02*
D03*
Y854000D02*
D03*
X-332500D02*
D03*
Y872000D02*
D03*
X-623500Y360000D02*
D03*
Y342000D02*
D03*
X-652500D02*
D03*
Y360000D02*
D03*
X-623500Y424000D02*
D03*
Y406000D02*
D03*
X-652500D02*
D03*
Y424000D02*
D03*
X-623500Y488000D02*
D03*
Y470000D02*
D03*
X-652500D02*
D03*
Y488000D02*
D03*
X-623500Y552000D02*
D03*
Y534000D02*
D03*
X-652500D02*
D03*
Y552000D02*
D03*
X-623500Y616000D02*
D03*
Y598000D02*
D03*
X-652500D02*
D03*
Y616000D02*
D03*
X-623500Y680000D02*
D03*
Y662000D02*
D03*
X-652500D02*
D03*
Y680000D02*
D03*
X-623500Y744000D02*
D03*
Y726000D02*
D03*
X-652500D02*
D03*
Y744000D02*
D03*
X-623500Y808000D02*
D03*
Y790000D02*
D03*
X-652500D02*
D03*
Y808000D02*
D03*
X-623500Y872000D02*
D03*
Y854000D02*
D03*
X-652500D02*
D03*
Y872000D02*
D03*
X-239500Y360000D02*
D03*
Y342000D02*
D03*
X-268500D02*
D03*
Y360000D02*
D03*
X-239500Y424000D02*
D03*
Y406000D02*
D03*
X-268500D02*
D03*
Y424000D02*
D03*
X-239500Y488000D02*
D03*
Y470000D02*
D03*
X-268500D02*
D03*
Y488000D02*
D03*
X-239500Y552000D02*
D03*
Y534000D02*
D03*
X-268500D02*
D03*
Y552000D02*
D03*
X-239500Y616000D02*
D03*
Y598000D02*
D03*
X-268500D02*
D03*
Y616000D02*
D03*
X-239500Y680000D02*
D03*
Y662000D02*
D03*
X-268500D02*
D03*
Y680000D02*
D03*
X-239500Y744000D02*
D03*
Y726000D02*
D03*
X-268500D02*
D03*
Y744000D02*
D03*
X-239500Y808000D02*
D03*
Y790000D02*
D03*
X-268500D02*
D03*
Y808000D02*
D03*
X-239500Y872000D02*
D03*
Y854000D02*
D03*
X-268500D02*
D03*
Y872000D02*
D03*
X-559500Y360000D02*
D03*
Y342000D02*
D03*
X-588500D02*
D03*
Y360000D02*
D03*
X-559500Y424000D02*
D03*
Y406000D02*
D03*
X-588500D02*
D03*
Y424000D02*
D03*
X-559500Y488000D02*
D03*
Y470000D02*
D03*
X-588500D02*
D03*
Y488000D02*
D03*
X-559500Y552000D02*
D03*
Y534000D02*
D03*
X-588500D02*
D03*
Y552000D02*
D03*
X-559500Y616000D02*
D03*
Y598000D02*
D03*
X-588500D02*
D03*
Y616000D02*
D03*
X-559500Y680000D02*
D03*
Y662000D02*
D03*
X-588500D02*
D03*
Y680000D02*
D03*
X-559500Y744000D02*
D03*
Y726000D02*
D03*
X-588500D02*
D03*
Y744000D02*
D03*
X-559500Y808000D02*
D03*
Y790000D02*
D03*
X-588500D02*
D03*
Y808000D02*
D03*
X-559500Y872000D02*
D03*
Y854000D02*
D03*
X-588500D02*
D03*
Y872000D02*
D03*
X-175500Y360000D02*
D03*
Y342000D02*
D03*
X-204500D02*
D03*
Y360000D02*
D03*
X-175505Y424000D02*
D03*
Y406000D02*
D03*
X-204505D02*
D03*
Y424000D02*
D03*
X-175500Y488000D02*
D03*
Y470000D02*
D03*
X-204500D02*
D03*
Y488000D02*
D03*
X-175500Y552000D02*
D03*
Y534000D02*
D03*
X-204500D02*
D03*
Y552000D02*
D03*
X-175500Y616000D02*
D03*
Y598000D02*
D03*
X-204500D02*
D03*
Y616000D02*
D03*
X-175500Y680000D02*
D03*
Y662000D02*
D03*
X-204500D02*
D03*
Y680000D02*
D03*
X-175500Y744000D02*
D03*
Y726000D02*
D03*
X-204500D02*
D03*
Y744000D02*
D03*
X-175500Y808000D02*
D03*
Y790000D02*
D03*
X-204500D02*
D03*
Y808000D02*
D03*
X-175500Y872000D02*
D03*
Y854000D02*
D03*
X-204500D02*
D03*
Y872000D02*
D03*
X-495500Y360000D02*
D03*
Y342000D02*
D03*
X-524500D02*
D03*
Y360000D02*
D03*
X-495500Y424000D02*
D03*
Y406000D02*
D03*
X-524500D02*
D03*
Y424000D02*
D03*
X-495500Y488000D02*
D03*
Y470000D02*
D03*
X-524500D02*
D03*
Y488000D02*
D03*
X-495500Y552000D02*
D03*
Y534000D02*
D03*
X-524500D02*
D03*
Y552000D02*
D03*
X-495500Y616000D02*
D03*
Y598000D02*
D03*
X-524500D02*
D03*
Y616000D02*
D03*
X-495500Y680000D02*
D03*
Y662000D02*
D03*
X-524500D02*
D03*
Y680000D02*
D03*
X-495500Y744000D02*
D03*
Y726000D02*
D03*
X-524500D02*
D03*
Y744000D02*
D03*
X-495500Y808000D02*
D03*
Y790000D02*
D03*
X-524500D02*
D03*
Y808000D02*
D03*
X-495500Y872000D02*
D03*
Y854000D02*
D03*
X-524500D02*
D03*
Y872000D02*
D03*
X-111500Y360000D02*
D03*
Y342000D02*
D03*
X-140500D02*
D03*
Y360000D02*
D03*
X-111500Y424000D02*
D03*
Y406000D02*
D03*
X-140500D02*
D03*
Y424000D02*
D03*
X-111500Y488000D02*
D03*
Y470000D02*
D03*
X-140500D02*
D03*
Y488000D02*
D03*
X-111500Y552000D02*
D03*
Y534000D02*
D03*
X-140500D02*
D03*
Y552000D02*
D03*
X-111500Y616000D02*
D03*
Y598000D02*
D03*
X-140500D02*
D03*
Y616000D02*
D03*
X-111500Y680000D02*
D03*
Y662000D02*
D03*
X-140500D02*
D03*
Y680000D02*
D03*
X-111500Y744000D02*
D03*
Y726000D02*
D03*
X-140500D02*
D03*
Y744000D02*
D03*
X-111500Y808000D02*
D03*
Y790000D02*
D03*
X-140500D02*
D03*
Y808000D02*
D03*
X-111500Y872000D02*
D03*
Y854000D02*
D03*
X-140500D02*
D03*
Y872000D02*
D03*
X-431500Y360000D02*
D03*
Y342000D02*
D03*
X-460500D02*
D03*
Y360000D02*
D03*
X-431500Y424000D02*
D03*
Y406000D02*
D03*
X-460500D02*
D03*
Y424000D02*
D03*
X-431500Y488000D02*
D03*
Y470000D02*
D03*
X-460500D02*
D03*
Y488000D02*
D03*
X-431500Y552000D02*
D03*
Y534000D02*
D03*
X-460500D02*
D03*
Y552000D02*
D03*
X-431500Y616000D02*
D03*
Y598000D02*
D03*
X-460500D02*
D03*
Y616000D02*
D03*
X-431500Y680000D02*
D03*
Y662000D02*
D03*
X-460500D02*
D03*
Y680000D02*
D03*
X-431500Y744000D02*
D03*
Y726000D02*
D03*
X-460500D02*
D03*
Y744000D02*
D03*
X-431500Y808000D02*
D03*
Y790000D02*
D03*
X-460500D02*
D03*
Y808000D02*
D03*
X-431500Y872000D02*
D03*
Y854000D02*
D03*
X-460500D02*
D03*
Y872000D02*
D03*
X-47500Y360000D02*
D03*
Y342000D02*
D03*
X-76500D02*
D03*
Y360000D02*
D03*
X-47500Y424000D02*
D03*
Y406000D02*
D03*
X-76500D02*
D03*
Y424000D02*
D03*
X-47500Y488000D02*
D03*
Y470000D02*
D03*
X-76500D02*
D03*
Y488000D02*
D03*
X-47500Y552000D02*
D03*
Y534000D02*
D03*
X-76500D02*
D03*
Y552000D02*
D03*
X-47500Y616000D02*
D03*
Y598000D02*
D03*
X-76500D02*
D03*
Y616000D02*
D03*
X-47500Y680000D02*
D03*
Y662000D02*
D03*
X-76500D02*
D03*
Y680000D02*
D03*
X-47500Y744000D02*
D03*
Y726000D02*
D03*
X-76500D02*
D03*
Y744000D02*
D03*
X-47500Y808000D02*
D03*
Y790000D02*
D03*
X-76500D02*
D03*
Y808000D02*
D03*
X-47500Y872000D02*
D03*
Y854000D02*
D03*
X-76500D02*
D03*
Y872000D02*
D03*
X-367500Y360000D02*
D03*
Y342000D02*
D03*
X-396500D02*
D03*
Y360000D02*
D03*
X-367500Y424000D02*
D03*
Y406000D02*
D03*
X-396500D02*
D03*
Y424000D02*
D03*
X-367500Y488000D02*
D03*
Y470000D02*
D03*
X-396500D02*
D03*
Y488000D02*
D03*
X-367500Y552000D02*
D03*
Y534000D02*
D03*
X-396500D02*
D03*
Y552000D02*
D03*
X-367500Y616000D02*
D03*
Y598000D02*
D03*
X-396500D02*
D03*
Y616000D02*
D03*
X-367500Y680000D02*
D03*
Y662000D02*
D03*
X-396500D02*
D03*
Y680000D02*
D03*
X-367500Y744000D02*
D03*
Y726000D02*
D03*
X-396500D02*
D03*
Y744000D02*
D03*
X-367500Y808000D02*
D03*
Y790000D02*
D03*
X-396500D02*
D03*
Y808000D02*
D03*
D19*
X-432500Y17000D02*
D03*
X-467500D02*
D03*
D20*
X-450000Y23500D02*
D03*
D21*
X-504750Y189500D02*
D03*
X-522750D02*
D03*
X-458250Y169000D02*
D03*
X-440250D02*
D03*
X-490500D02*
D03*
X-472500D02*
D03*
X-472500Y189500D02*
D03*
X-490500D02*
D03*
D22*
X-665000Y35000D02*
D03*
X-35000D02*
D03*
X-665000Y1115000D02*
D03*
X-35000Y1115000D02*
D03*
X-40000Y914000D02*
D03*
X-660000D02*
D03*
Y236000D02*
D03*
X-40000D02*
D03*
D23*
X-15750Y960500D02*
D03*
Y983500D02*
D03*
X-684250Y696000D02*
D03*
Y719000D02*
D03*
X-15750Y696000D02*
D03*
Y719000D02*
D03*
D24*
X-681000Y302500D02*
D03*
Y332500D02*
D03*
D25*
X-679700Y159200D02*
D03*
Y72800D02*
D03*
D26*
X-626100Y159200D02*
D03*
Y72800D02*
D03*
M02*
