%FSLAX44Y44*%
%MOMM*%
G71*
G04*
G04 #@! TF.SameCoordinates,80543DCF-8C45-4766-8294-206619DBCA83*
G04*
G04*
G04 #@! TF.FilePolarity,Negative*
G04*
G01*
G75*
%ADD17C,1.7000*%
G04:AMPARAMS|DCode=19|XSize=1.704mm|YSize=1.704mm|CornerRadius=0.2895mm|HoleSize=0mm|Usage=FLASHONLY|Rotation=270.000|XOffset=0mm|YOffset=0mm|HoleType=Round|Shape=RoundedRectangle|*
%AMROUNDEDRECTD19*
21,1,1.7040,1.1250,0,0,270.0*
21,1,1.1250,1.7040,0,0,270.0*
1,1,0.5790,-0.5625,-0.5625*
1,1,0.5790,-0.5625,0.5625*
1,1,0.5790,0.5625,0.5625*
1,1,0.5790,0.5625,-0.5625*
%
%ADD19ROUNDEDRECTD19*%
G04:AMPARAMS|DCode=20|XSize=1.104mm|YSize=1.104mm|CornerRadius=0.2145mm|HoleSize=0mm|Usage=FLASHONLY|Rotation=270.000|XOffset=0mm|YOffset=0mm|HoleType=Round|Shape=RoundedRectangle|*
%AMROUNDEDRECTD20*
21,1,1.1040,0.6750,0,0,270.0*
21,1,0.6750,1.1040,0,0,270.0*
1,1,0.4290,-0.3375,-0.3375*
1,1,0.4290,-0.3375,0.3375*
1,1,0.4290,0.3375,0.3375*
1,1,0.4290,0.3375,-0.3375*
%
%ADD20ROUNDEDRECTD20*%
G04:AMPARAMS|DCode=21|XSize=1.604mm|YSize=1.004mm|CornerRadius=0.302mm|HoleSize=0mm|Usage=FLASHONLY|Rotation=270.000|XOffset=0mm|YOffset=0mm|HoleType=Round|Shape=RoundedRectangle|*
%AMROUNDEDRECTD21*
21,1,1.6040,0.4000,0,0,270.0*
21,1,1.0000,1.0040,0,0,270.0*
1,1,0.6040,-0.2000,-0.5000*
1,1,0.6040,-0.2000,0.5000*
1,1,0.6040,0.2000,0.5000*
1,1,0.6040,0.2000,-0.5000*
%
%ADD21ROUNDEDRECTD21*%
%ADD22C,2.1000*%
%ADD23C,0.9000*%
%ADD24C,0.2040*%
%ADD25O,2.7000X1.2000*%
%ADD26O,2.2000X1.2000*%
G04:AMPARAMS|DCode=77|XSize=1.604mm|YSize=1.004mm|CornerRadius=0.302mm|HoleSize=0mm|Usage=FLASHONLY|Rotation=180.000|XOffset=0mm|YOffset=0mm|HoleType=Round|Shape=RoundedRectangle|*
%AMROUNDEDRECTD77*
21,1,1.6040,0.4000,0,0,180.0*
21,1,1.0000,1.0040,0,0,180.0*
1,1,0.6040,-0.5000,0.2000*
1,1,0.6040,0.5000,0.2000*
1,1,0.6040,0.5000,-0.2000*
1,1,0.6040,-0.5000,-0.2000*
%
%ADD77ROUNDEDRECTD77*%
%ADD78R,1.6040X1.0040*%
%ADD79R,1.0040X1.6040*%
G04:AMPARAMS|DCode=80|XSize=1.004mm|YSize=1.504mm|CornerRadius=0.222mm|HoleSize=0mm|Usage=FLASHONLY|Rotation=270.000|XOffset=0mm|YOffset=0mm|HoleType=Round|Shape=RoundedRectangle|*
%AMROUNDEDRECTD80*
21,1,1.0040,1.0600,0,0,270.0*
21,1,0.5600,1.5040,0,0,270.0*
1,1,0.4440,-0.5300,-0.2800*
1,1,0.4440,-0.5300,0.2800*
1,1,0.4440,0.5300,0.2800*
1,1,0.4440,0.5300,-0.2800*
%
%ADD80ROUNDEDRECTD80*%
%ADD81R,1.1040X1.0040*%
G04:AMPARAMS|DCode=82|XSize=1.364mm|YSize=1.674mm|CornerRadius=0.392mm|HoleSize=0mm|Usage=FLASHONLY|Rotation=0.000|XOffset=0mm|YOffset=0mm|HoleType=Round|Shape=RoundedRectangle|*
%AMROUNDEDRECTD82*
21,1,1.3640,0.8900,0,0,0.0*
21,1,0.5800,1.6740,0,0,0.0*
1,1,0.7840,0.2900,-0.4450*
1,1,0.7840,-0.2900,-0.4450*
1,1,0.7840,-0.2900,0.4450*
1,1,0.7840,0.2900,0.4450*
%
%ADD82ROUNDEDRECTD82*%
G04:AMPARAMS|DCode=83|XSize=1.364mm|YSize=1.674mm|CornerRadius=0.392mm|HoleSize=0mm|Usage=FLASHONLY|Rotation=90.000|XOffset=0mm|YOffset=0mm|HoleType=Round|Shape=RoundedRectangle|*
%AMROUNDEDRECTD83*
21,1,1.3640,0.8900,0,0,90.0*
21,1,0.5800,1.6740,0,0,90.0*
1,1,0.7840,0.4450,0.2900*
1,1,0.7840,0.4450,-0.2900*
1,1,0.7840,-0.4450,-0.2900*
1,1,0.7840,-0.4450,0.2900*
%
%ADD83ROUNDEDRECTD83*%
%ADD84R,3.7040X1.2040*%
%ADD85R,3.6040X1.7040*%
G04:AMPARAMS|DCode=86|XSize=1.104mm|YSize=1.104mm|CornerRadius=0.2145mm|HoleSize=0mm|Usage=FLASHONLY|Rotation=180.000|XOffset=0mm|YOffset=0mm|HoleType=Round|Shape=RoundedRectangle|*
%AMROUNDEDRECTD86*
21,1,1.1040,0.6750,0,0,180.0*
21,1,0.6750,1.1040,0,0,180.0*
1,1,0.4290,-0.3375,0.3375*
1,1,0.4290,0.3375,0.3375*
1,1,0.4290,0.3375,-0.3375*
1,1,0.4290,-0.3375,-0.3375*
%
%ADD86ROUNDEDRECTD86*%
G04:AMPARAMS|DCode=87|XSize=1.704mm|YSize=1.704mm|CornerRadius=0.2895mm|HoleSize=0mm|Usage=FLASHONLY|Rotation=180.000|XOffset=0mm|YOffset=0mm|HoleType=Round|Shape=RoundedRectangle|*
%AMROUNDEDRECTD87*
21,1,1.7040,1.1250,0,0,180.0*
21,1,1.1250,1.7040,0,0,180.0*
1,1,0.5790,-0.5625,0.5625*
1,1,0.5790,0.5625,0.5625*
1,1,0.5790,0.5625,-0.5625*
1,1,0.5790,-0.5625,-0.5625*
%
%ADD87ROUNDEDRECTD87*%
G04:AMPARAMS|DCode=88|XSize=2.404mm|YSize=1.704mm|CornerRadius=0.2895mm|HoleSize=0mm|Usage=FLASHONLY|Rotation=0.000|XOffset=0mm|YOffset=0mm|HoleType=Round|Shape=RoundedRectangle|*
%AMROUNDEDRECTD88*
21,1,2.4040,1.1250,0,0,0.0*
21,1,1.8250,1.7040,0,0,0.0*
1,1,0.5790,0.9125,-0.5625*
1,1,0.5790,-0.9125,-0.5625*
1,1,0.5790,-0.9125,0.5625*
1,1,0.5790,0.9125,0.5625*
%
%ADD88ROUNDEDRECTD88*%
G04:AMPARAMS|DCode=89|XSize=1.604mm|YSize=1.604mm|CornerRadius=0.452mm|HoleSize=0mm|Usage=FLASHONLY|Rotation=270.000|XOffset=0mm|YOffset=0mm|HoleType=Round|Shape=RoundedRectangle|*
%AMROUNDEDRECTD89*
21,1,1.6040,0.7000,0,0,270.0*
21,1,0.7000,1.6040,0,0,270.0*
1,1,0.9040,-0.3500,-0.3500*
1,1,0.9040,-0.3500,0.3500*
1,1,0.9040,0.3500,0.3500*
1,1,0.9040,0.3500,-0.3500*
%
%ADD89ROUNDEDRECTD89*%
%ADD90R,1.0040X1.1040*%
%ADD91R,2.2040X2.2040*%
%ADD92R,2.2040X2.2040*%
G04:AMPARAMS|DCode=93|XSize=1.204mm|YSize=2.004mm|CornerRadius=0.352mm|HoleSize=0mm|Usage=FLASHONLY|Rotation=180.000|XOffset=0mm|YOffset=0mm|HoleType=Round|Shape=RoundedRectangle|*
%AMROUNDEDRECTD93*
21,1,1.2040,1.3000,0,0,180.0*
21,1,0.5000,2.0040,0,0,180.0*
1,1,0.7040,-0.2500,0.6500*
1,1,0.7040,0.2500,0.6500*
1,1,0.7040,0.2500,-0.6500*
1,1,0.7040,-0.2500,-0.6500*
%
%ADD93ROUNDEDRECTD93*%
G04:AMPARAMS|DCode=94|XSize=1.504mm|YSize=1.004mm|CornerRadius=0.302mm|HoleSize=0mm|Usage=FLASHONLY|Rotation=180.000|XOffset=0mm|YOffset=0mm|HoleType=Round|Shape=RoundedRectangle|*
%AMROUNDEDRECTD94*
21,1,1.5040,0.4000,0,0,180.0*
21,1,0.9000,1.0040,0,0,180.0*
1,1,0.6040,-0.4500,0.2000*
1,1,0.6040,0.4500,0.2000*
1,1,0.6040,0.4500,-0.2000*
1,1,0.6040,-0.4500,-0.2000*
%
%ADD94ROUNDEDRECTD94*%
G04:AMPARAMS|DCode=95|XSize=0.754mm|YSize=1.004mm|CornerRadius=0.2395mm|HoleSize=0mm|Usage=FLASHONLY|Rotation=90.000|XOffset=0mm|YOffset=0mm|HoleType=Round|Shape=RoundedRectangle|*
%AMROUNDEDRECTD95*
21,1,0.7540,0.5250,0,0,90.0*
21,1,0.2750,1.0040,0,0,90.0*
1,1,0.4790,0.2625,0.1375*
1,1,0.4790,0.2625,-0.1375*
1,1,0.4790,-0.2625,-0.1375*
1,1,0.4790,-0.2625,0.1375*
%
%ADD95ROUNDEDRECTD95*%
G04:AMPARAMS|DCode=96|XSize=1.601mm|YSize=1.855mm|CornerRadius=0.4513mm|HoleSize=0mm|Usage=FLASHONLY|Rotation=0.000|XOffset=0mm|YOffset=0mm|HoleType=Round|Shape=RoundedRectangle|*
%AMROUNDEDRECTD96*
21,1,1.6010,0.9525,0,0,0.0*
21,1,0.6985,1.8550,0,0,0.0*
1,1,0.9025,0.3493,-0.4763*
1,1,0.9025,-0.3493,-0.4763*
1,1,0.9025,-0.3493,0.4763*
1,1,0.9025,0.3493,0.4763*
%
%ADD96ROUNDEDRECTD96*%
G04:AMPARAMS|DCode=97|XSize=1.954mm|YSize=1.004mm|CornerRadius=0.202mm|HoleSize=0mm|Usage=FLASHONLY|Rotation=90.000|XOffset=0mm|YOffset=0mm|HoleType=Round|Shape=RoundedRectangle|*
%AMROUNDEDRECTD97*
21,1,1.9540,0.6000,0,0,90.0*
21,1,1.5500,1.0040,0,0,90.0*
1,1,0.4040,0.3000,0.7750*
1,1,0.4040,0.3000,-0.7750*
1,1,0.4040,-0.3000,-0.7750*
1,1,0.4040,-0.3000,0.7750*
%
%ADD97ROUNDEDRECTD97*%
G04:AMPARAMS|DCode=98|XSize=0.794mm|YSize=1.204mm|CornerRadius=0.1758mm|HoleSize=0mm|Usage=FLASHONLY|Rotation=270.000|XOffset=0mm|YOffset=0mm|HoleType=Round|Shape=RoundedRectangle|*
%AMROUNDEDRECTD98*
21,1,0.7940,0.8525,0,0,270.0*
21,1,0.4425,1.2040,0,0,270.0*
1,1,0.3515,-0.4263,-0.2213*
1,1,0.3515,-0.4263,0.2213*
1,1,0.3515,0.4263,0.2213*
1,1,0.3515,0.4263,-0.2213*
%
%ADD98ROUNDEDRECTD98*%
G04:AMPARAMS|DCode=99|XSize=0.754mm|YSize=1.504mm|CornerRadius=0.1708mm|HoleSize=0mm|Usage=FLASHONLY|Rotation=0.000|XOffset=0mm|YOffset=0mm|HoleType=Round|Shape=RoundedRectangle|*
%AMROUNDEDRECTD99*
21,1,0.7540,1.1625,0,0,0.0*
21,1,0.4125,1.5040,0,0,0.0*
1,1,0.3415,0.2063,-0.5813*
1,1,0.3415,-0.2063,-0.5813*
1,1,0.3415,-0.2063,0.5813*
1,1,0.3415,0.2063,0.5813*
%
%ADD99ROUNDEDRECTD99*%
G04:AMPARAMS|DCode=100|XSize=0.804mm|YSize=1.704mm|CornerRadius=0.192mm|HoleSize=0mm|Usage=FLASHONLY|Rotation=180.000|XOffset=0mm|YOffset=0mm|HoleType=Round|Shape=RoundedRectangle|*
%AMROUNDEDRECTD100*
21,1,0.8040,1.3200,0,0,180.0*
21,1,0.4200,1.7040,0,0,180.0*
1,1,0.3840,-0.2100,0.6600*
1,1,0.3840,0.2100,0.6600*
1,1,0.3840,0.2100,-0.6600*
1,1,0.3840,-0.2100,-0.6600*
%
%ADD100ROUNDEDRECTD100*%
%ADD101R,2.2000X4.2000*%
G04:AMPARAMS|DCode=102|XSize=0.754mm|YSize=1.704mm|CornerRadius=0.1708mm|HoleSize=0mm|Usage=FLASHONLY|Rotation=90.000|XOffset=0mm|YOffset=0mm|HoleType=Round|Shape=RoundedRectangle|*
%AMROUNDEDRECTD102*
21,1,0.7540,1.3625,0,0,90.0*
21,1,0.4125,1.7040,0,0,90.0*
1,1,0.3415,0.6813,0.2063*
1,1,0.3415,0.6813,-0.2063*
1,1,0.3415,-0.6813,-0.2063*
1,1,0.3415,-0.6813,0.2063*
%
%ADD102ROUNDEDRECTD102*%
G04:AMPARAMS|DCode=103|XSize=0.754mm|YSize=1.704mm|CornerRadius=0.1708mm|HoleSize=0mm|Usage=FLASHONLY|Rotation=0.000|XOffset=0mm|YOffset=0mm|HoleType=Round|Shape=RoundedRectangle|*
%AMROUNDEDRECTD103*
21,1,0.7540,1.3625,0,0,0.0*
21,1,0.4125,1.7040,0,0,0.0*
1,1,0.3415,0.2063,-0.6813*
1,1,0.3415,-0.2063,-0.6813*
1,1,0.3415,-0.2063,0.6813*
1,1,0.3415,0.2063,0.6813*
%
%ADD103ROUNDEDRECTD103*%
%ADD104R,2.0040X1.6040*%
G04:AMPARAMS|DCode=105|XSize=1.6mm|YSize=1mm|CornerRadius=0.1625mm|HoleSize=0mm|Usage=FLASHONLY|Rotation=270.000|XOffset=0mm|YOffset=0mm|HoleType=Round|Shape=RoundedRectangle|*
%AMROUNDEDRECTD105*
21,1,1.6000,0.6750,0,0,270.0*
21,1,1.2750,1.0000,0,0,270.0*
1,1,0.3250,-0.3375,-0.6375*
1,1,0.3250,-0.3375,0.6375*
1,1,0.3250,0.3375,0.6375*
1,1,0.3250,0.3375,-0.6375*
%
%ADD105ROUNDEDRECTD105*%
G04:AMPARAMS|DCode=106|XSize=1.6mm|YSize=1mm|CornerRadius=0.1625mm|HoleSize=0mm|Usage=FLASHONLY|Rotation=0.000|XOffset=0mm|YOffset=0mm|HoleType=Round|Shape=RoundedRectangle|*
%AMROUNDEDRECTD106*
21,1,1.6000,0.6750,0,0,0.0*
21,1,1.2750,1.0000,0,0,0.0*
1,1,0.3250,0.6375,-0.3375*
1,1,0.3250,-0.6375,-0.3375*
1,1,0.3250,-0.6375,0.3375*
1,1,0.3250,0.6375,0.3375*
%
%ADD106ROUNDEDRECTD106*%
G04:AMPARAMS|DCode=107|XSize=1mm|YSize=1mm|CornerRadius=0.0815mm|HoleSize=0mm|Usage=FLASHONLY|Rotation=0.000|XOffset=0mm|YOffset=0mm|HoleType=Round|Shape=RoundedRectangle|*
%AMROUNDEDRECTD107*
21,1,1.0000,0.8370,0,0,0.0*
21,1,0.8370,1.0000,0,0,0.0*
1,1,0.1630,0.4185,-0.4185*
1,1,0.1630,-0.4185,-0.4185*
1,1,0.1630,-0.4185,0.4185*
1,1,0.1630,0.4185,0.4185*
%
%ADD107ROUNDEDRECTD107*%
%ADD108R,0.8040X2.0040*%
%ADD109R,2.4040X2.4040*%
%ADD110R,0.8000X0.9500*%
%ADD111R,0.8000X0.3500*%
G36*
X-453367Y1073013D02*
X-453235Y1072987D01*
X-453172Y1072966D01*
X-453109Y1072944D01*
X-452989Y1072885D01*
X-452878Y1072811D01*
X-452777Y1072723D01*
X-444777Y1064723D01*
X-444689Y1064622D01*
X-444615Y1064511D01*
X-444556Y1064391D01*
X-444545Y1064359D01*
X-444513Y1064265D01*
X-444487Y1064133D01*
X-444478Y1064000D01*
Y1052000D01*
X-444487Y1051867D01*
X-444513Y1051735D01*
X-444556Y1051609D01*
X-444615Y1051489D01*
X-444689Y1051378D01*
X-444777Y1051277D01*
X-444878Y1051189D01*
X-444989Y1051115D01*
X-445109Y1051056D01*
X-445235Y1051013D01*
X-445367Y1050987D01*
X-445500Y1050978D01*
X-465500D01*
X-465633Y1050987D01*
X-465765Y1051013D01*
X-465891Y1051056D01*
X-466011Y1051115D01*
X-466122Y1051189D01*
X-466223Y1051277D01*
X-466311Y1051378D01*
X-466385Y1051489D01*
X-466444Y1051609D01*
X-466487Y1051735D01*
X-466513Y1051867D01*
X-466522Y1052000D01*
Y1072000D01*
X-466513Y1072133D01*
X-466487Y1072265D01*
X-466444Y1072391D01*
X-466385Y1072511D01*
X-466311Y1072622D01*
X-466223Y1072723D01*
X-466122Y1072811D01*
X-466011Y1072885D01*
X-465891Y1072944D01*
X-465765Y1072987D01*
X-465633Y1073013D01*
X-465500Y1073022D01*
X-453500D01*
X-453367Y1073013D01*
D02*
G37*
D17*
X-27000Y1078000D02*
D03*
X-634000Y46000D02*
D03*
D19*
X-432500Y17250D02*
D03*
X-467500D02*
D03*
D20*
X-450000Y23750D02*
D03*
D21*
X-584750Y803250D02*
D03*
X-566750D02*
D03*
X-130875Y288010D02*
D03*
X-112875D02*
D03*
X-565500Y185500D02*
D03*
X-547500D02*
D03*
X-461000Y81000D02*
D03*
X-479000D02*
D03*
X-559500D02*
D03*
X-541500D02*
D03*
X-419000Y122250D02*
D03*
X-401000D02*
D03*
D22*
X-665000Y35000D02*
D03*
X-35000D02*
D03*
X-665000Y1115000D02*
D03*
X-35000Y1115000D02*
D03*
X-40000Y914000D02*
D03*
X-660000D02*
D03*
Y236000D02*
D03*
X-40000D02*
D03*
D23*
X-15750Y960500D02*
D03*
Y983500D02*
D03*
X-684250Y696000D02*
D03*
Y719000D02*
D03*
X-15750Y696000D02*
D03*
Y719000D02*
D03*
D24*
X-681000Y302500D02*
D03*
Y332500D02*
D03*
D25*
X-679700Y159200D02*
D03*
Y72800D02*
D03*
D26*
X-626100Y159200D02*
D03*
Y72800D02*
D03*
D77*
X-610000Y175750D02*
D03*
Y193750D02*
D03*
Y209000D02*
D03*
Y227000D02*
D03*
Y259000D02*
D03*
Y241000D02*
D03*
X-127000Y749000D02*
D03*
Y767000D02*
D03*
Y925000D02*
D03*
Y943000D02*
D03*
Y961000D02*
D03*
Y979000D02*
D03*
Y876000D02*
D03*
Y858000D02*
D03*
X-55000Y280760D02*
D03*
Y298760D02*
D03*
X-566250Y1055750D02*
D03*
Y1037750D02*
D03*
X-547250Y1055750D02*
D03*
Y1037750D02*
D03*
X-358000Y159000D02*
D03*
Y141000D02*
D03*
X-338000D02*
D03*
Y159000D02*
D03*
X-570000Y554500D02*
D03*
Y536500D02*
D03*
X-484750Y106000D02*
D03*
Y124000D02*
D03*
X-570000Y486000D02*
D03*
Y468000D02*
D03*
X-419000Y158750D02*
D03*
Y140750D02*
D03*
X-296000Y137000D02*
D03*
Y119000D02*
D03*
D78*
X-127000Y909000D02*
D03*
Y891000D02*
D03*
Y731615D02*
D03*
Y713615D02*
D03*
X-378000Y141000D02*
D03*
Y159000D02*
D03*
X-540307Y168334D02*
D03*
Y150334D02*
D03*
X-564057Y168334D02*
D03*
Y150334D02*
D03*
X-508000Y106000D02*
D03*
Y124000D02*
D03*
X-587000Y383750D02*
D03*
Y365750D02*
D03*
X-276000Y137000D02*
D03*
Y119000D02*
D03*
Y81000D02*
D03*
Y99000D02*
D03*
X-296000Y81000D02*
D03*
Y99000D02*
D03*
X-529000Y124000D02*
D03*
Y106000D02*
D03*
D79*
X-584750Y775000D02*
D03*
X-566750D02*
D03*
X-333000Y256000D02*
D03*
X-351000D02*
D03*
X-393250Y294250D02*
D03*
X-375250D02*
D03*
X-577000Y81000D02*
D03*
X-595000D02*
D03*
D80*
X-570000Y680500D02*
D03*
Y699500D02*
D03*
Y640250D02*
D03*
Y659250D02*
D03*
D81*
X-596000Y331500D02*
D03*
Y312500D02*
D03*
X-576000Y322000D02*
D03*
X-75000Y280510D02*
D03*
Y299510D02*
D03*
X-95000Y290010D02*
D03*
X-442250Y110500D02*
D03*
Y129500D02*
D03*
X-462250Y120000D02*
D03*
X-322500Y91000D02*
D03*
X-342500Y81500D02*
D03*
Y100500D02*
D03*
X-400750Y91000D02*
D03*
X-380750Y100500D02*
D03*
Y81500D02*
D03*
D82*
X-537200Y332000D02*
D03*
X-554800D02*
D03*
D83*
X-155000Y306800D02*
D03*
Y289200D02*
D03*
X-154635Y819800D02*
D03*
Y802200D02*
D03*
Y756800D02*
D03*
Y739200D02*
D03*
Y690800D02*
D03*
Y673200D02*
D03*
X-154635Y628800D02*
D03*
Y611200D02*
D03*
X-154635Y563800D02*
D03*
Y546200D02*
D03*
X-154000Y499800D02*
D03*
Y482200D02*
D03*
X-154635Y882800D02*
D03*
Y865200D02*
D03*
X-155000Y372800D02*
D03*
Y355200D02*
D03*
Y434800D02*
D03*
Y417200D02*
D03*
X-544000Y690800D02*
D03*
Y673200D02*
D03*
Y756800D02*
D03*
Y739200D02*
D03*
Y628800D02*
D03*
Y611200D02*
D03*
Y882800D02*
D03*
Y865200D02*
D03*
Y819800D02*
D03*
Y802200D02*
D03*
Y499800D02*
D03*
Y482200D02*
D03*
Y563800D02*
D03*
Y546200D02*
D03*
Y372800D02*
D03*
Y355200D02*
D03*
Y434800D02*
D03*
Y417200D02*
D03*
X-273000Y173200D02*
D03*
Y190800D02*
D03*
X-272250Y214950D02*
D03*
Y232550D02*
D03*
D84*
X-150000Y1000000D02*
D03*
Y1020000D02*
D03*
Y1040000D02*
D03*
D85*
X-207500Y1063500D02*
D03*
Y976500D02*
D03*
D86*
X-676500Y499000D02*
D03*
X-676500Y419000D02*
D03*
D87*
X-683000Y481500D02*
D03*
Y516500D02*
D03*
X-683000Y401500D02*
D03*
Y436500D02*
D03*
D88*
X-417500Y295250D02*
D03*
X-459500D02*
D03*
X-560500Y1012250D02*
D03*
X-602500D02*
D03*
D89*
X-351600Y277000D02*
D03*
X-313600D02*
D03*
Y300000D02*
D03*
X-351600D02*
D03*
D90*
X-594250Y1038750D02*
D03*
X-603750Y1058750D02*
D03*
X-584750D02*
D03*
D91*
X-524500Y1062000D02*
D03*
X-455500Y993000D02*
D03*
D92*
X-524500D02*
D03*
D93*
X-9750Y1005750D02*
D03*
Y938250D02*
D03*
X-690250Y741250D02*
D03*
Y673750D02*
D03*
X-9750Y741250D02*
D03*
Y673750D02*
D03*
D94*
X-31000Y951000D02*
D03*
Y993000D02*
D03*
X-669000Y686500D02*
D03*
Y728500D02*
D03*
X-31000Y686500D02*
D03*
Y728500D02*
D03*
D95*
X-501200Y161500D02*
D03*
Y152000D02*
D03*
Y142500D02*
D03*
X-525200Y161500D02*
D03*
Y142500D02*
D03*
D96*
X-445030Y156500D02*
D03*
X-472970D02*
D03*
X-508970Y325000D02*
D03*
X-481030D02*
D03*
X-583970Y126000D02*
D03*
X-556030D02*
D03*
X-383500Y325000D02*
D03*
X-355560D02*
D03*
X-583970Y103000D02*
D03*
X-556030D02*
D03*
X-418780Y325000D02*
D03*
X-446720D02*
D03*
D97*
X-570950Y30750D02*
D03*
X-583650D02*
D03*
X-596350D02*
D03*
X-609050D02*
D03*
D98*
X-495500Y281500D02*
D03*
Y291000D02*
D03*
Y300500D02*
D03*
X-521500Y291000D02*
D03*
Y281500D02*
D03*
Y300500D02*
D03*
D99*
X-669250Y280500D02*
D03*
D100*
X-382450Y232000D02*
D03*
X-369750D02*
D03*
X-357050D02*
D03*
X-344350D02*
D03*
X-331650D02*
D03*
X-318950D02*
D03*
X-306250D02*
D03*
X-382450Y178000D02*
D03*
X-369750D02*
D03*
X-357050D02*
D03*
X-344350D02*
D03*
X-331650D02*
D03*
X-318950D02*
D03*
X-306250D02*
D03*
X-293550Y232000D02*
D03*
Y178000D02*
D03*
D101*
X-515000Y221750D02*
D03*
X-421000D02*
D03*
D102*
X-660000Y324250D02*
D03*
Y294250D02*
D03*
Y339250D02*
D03*
D103*
X-669250Y354500D02*
D03*
X-693000D02*
D03*
Y280500D02*
D03*
D104*
X-586750Y191000D02*
D03*
Y163000D02*
D03*
D105*
X-204950Y254200D02*
D03*
X-217650D02*
D03*
X-192250D02*
D03*
X-179550D02*
D03*
X-103350D02*
D03*
X-116050D02*
D03*
X-128750D02*
D03*
X-166850D02*
D03*
X-154150D02*
D03*
X-141450D02*
D03*
D106*
X-73000Y229000D02*
D03*
X-248000D02*
D03*
X-73000Y76600D02*
D03*
X-248000D02*
D03*
X-73000Y89300D02*
D03*
X-248000D02*
D03*
X-73000Y102000D02*
D03*
X-248000D02*
D03*
X-73000Y114700D02*
D03*
X-248000D02*
D03*
X-73000Y127400D02*
D03*
X-248000D02*
D03*
X-73000Y140100D02*
D03*
X-248000D02*
D03*
X-73000Y152800D02*
D03*
X-248000D02*
D03*
X-73000Y165500D02*
D03*
X-248000D02*
D03*
X-73000Y178200D02*
D03*
X-248000D02*
D03*
X-73000Y190900D02*
D03*
X-248000D02*
D03*
X-73000Y203600D02*
D03*
X-248000D02*
D03*
X-73000Y216300D02*
D03*
X-248000D02*
D03*
Y241700D02*
D03*
X-73000D02*
D03*
D107*
X-171400Y139800D02*
D03*
X-185400D02*
D03*
X-157400D02*
D03*
Y153800D02*
D03*
X-185400D02*
D03*
X-171400D02*
D03*
Y167800D02*
D03*
X-185400D02*
D03*
X-157400D02*
D03*
D108*
X-589550Y284500D02*
D03*
X-576850D02*
D03*
X-564150D02*
D03*
X-551450D02*
D03*
X-589550Y215500D02*
D03*
X-576850D02*
D03*
X-564150D02*
D03*
X-551450D02*
D03*
D109*
X-570500Y250000D02*
D03*
D110*
X-635000Y85500D02*
D03*
Y146500D02*
D03*
D111*
Y93500D02*
D03*
Y98500D02*
D03*
Y103500D02*
D03*
Y108500D02*
D03*
Y113500D02*
D03*
Y118500D02*
D03*
Y123500D02*
D03*
Y128500D02*
D03*
Y133500D02*
D03*
Y138500D02*
D03*
X-622000Y146000D02*
D03*
Y141000D02*
D03*
Y136000D02*
D03*
Y131000D02*
D03*
Y126000D02*
D03*
Y121000D02*
D03*
Y111000D02*
D03*
Y106000D02*
D03*
Y101000D02*
D03*
Y96000D02*
D03*
Y91000D02*
D03*
Y86000D02*
D03*
M02*
